# xmcd
#
# Track frame offsets:
#	150
#	11424
#	19922
#	32418
#	38908
#	46878
#	59068
#	72245
#	89540
#	100249
#	110916
#	122797
#	133828
#
# Disc length: 1938 seconds
#
# Revision: 0
# Processed by: cddbd v1.5.2PL0 Copyright (c) Steve Scherf et al.
# Submitted via: EZCDAudioConverter 3.1.3.1
#
DISCID=b707900d
DTITLE=Heroin Hayride - Hop on the Wagon
DYEAR=1900
DGENRE=bluegrass punk
TTITLE0=Wake up sinners
TTITLE1=Heroin whiskey blues
TTITLE2=Wandrin'
TTITLE3=Transparent people
TTITLE4=Country pretty
TTITLE5=Waltzapalooza
TTITLE6=Just keep movin'on
TTITLE7=Bed bug blues
TTITLE8=Notre refuge est le plaisir
TTITLE9=Heroine
TTITLE10=You are my sunshine
TTITLE11=Pa
TTITLE12=Fair thee well
EXTD=
EXTT0=
EXTT1=
EXTT2=
EXTT3=
EXTT4=
EXTT5=
EXTT6=
EXTT7=
EXTT8=
EXTT9=
EXTT10=
EXTT11=
EXTT12=
PLAYORDER=
